<svg width="32" height="32" viewBox="0 0 32 32" fill="none" xmlns="http://www.w3.org/2000/svg">
<path d="M25.2639 14.8158C24.6812 10.2265 20.7505 6.6665 16.0052 6.6665C12.3305 6.6665 9.13854 8.8145 7.68121 12.1998C4.81721 13.0558 2.67188 15.7598 2.67188 18.6665C2.67188 22.3425 5.66254 25.3332 9.33854 25.3332H10.6719V22.6665H9.33854C7.13321 22.6665 5.33854 20.8718 5.33854 18.6665C5.33854 16.7945 6.93721 14.9905 8.90254 14.6452L9.67721 14.5092L9.93321 13.7652C10.8705 11.0305 13.1972 9.33317 16.0052 9.33317C19.6812 9.33317 22.6719 12.3238 22.6719 15.9998V17.3332H24.0052C25.4759 17.3332 26.6719 18.5292 26.6719 19.9998C26.6719 21.4705 25.4759 22.6665 24.0052 22.6665H21.3385V25.3332H24.0052C26.9465 25.3332 29.3385 22.9412 29.3385 19.9998C29.337 18.8045 28.9347 17.6443 28.196 16.7045C27.4574 15.7647 26.425 15.0998 25.2639 14.8158Z" fill="#FAFAFA"/>
<path d="M17.3385 18.6665V13.3332H14.6719V18.6665H10.6719L16.0052 25.3332L21.3385 18.6665H17.3385Z" fill="#FAFAFA"/>
</svg>
